{
    "asset" : {
        "generator" : "Khronos glTF Blender I/O v1.4.40",
        "version" : "2.0"
    },
    "scene" : 0,
    "scenes" : [
        {
            "name" : "Scene",
            "nodes" : [
                0,
                1,
                2,
                3,
                4,
                5,
                6
            ]
        }
    ],
    "nodes" : [
        {
            "name" : "Spot.002",
            "rotation" : [
                -0.010748930275440216,
                -0.7741380929946899,
                -0.4176267385482788,
                0.47558656334877014
            ],
            "translation" : [
                2.201080322265625,
                4.592353820800781,
                6.670522689819336
            ]
        },
        {
            "name" : "Spot.001",
            "rotation" : [
                -0.3039977252483368,
                -0.20775039494037628,
                -0.28655365109443665,
                0.8844841122627258
            ],
            "translation" : [
                3.683076858520508,
                4.592353820800781,
                -4.7902512550354
            ]
        },
        {
            "name" : "Spot",
            "translation" : [
                0.1310129165649414,
                7.030282020568848,
                -0.18884921073913574
            ]
        },
        {
            "name" : "Lamp.001",
            "rotation" : [
                0.16907575726509094,
                0.7558803558349609,
                -0.27217137813568115,
                0.570947527885437
            ],
            "translation" : [
                3.1942126750946045,
                2.167184352874756,
                -1.2359857559204102
            ]
        },
        {
            "mesh" : 0,
            "name" : "Icosphere",
            "rotation" : [
                0.5947825312614441,
                0.4064711630344391,
                0.560652494430542,
                0.40826916694641113
            ],
            "scale" : [
                0.5510363578796387,
                0.5510363578796387,
                0.5510363578796387
            ]
        },
        {
            "name" : "Lamp",
            "rotation" : [
                0.16907575726509094,
                0.7558803558349609,
                -0.27217137813568115,
                0.570947527885437
            ],
            "translation" : [
                1.8251028060913086,
                5.904165744781494,
                1.3825129270553589
            ]
        },
        {
            "name" : "Camera",
            "rotation" : [
                0.483536034822464,
                0.33687159419059753,
                -0.20870360732078552,
                0.7804827094078064
            ],
            "translation" : [
                7.481131553649902,
                5.34366512298584,
                6.5076398849487305
            ]
        }
    ],
    "animations" : [
        {
            "channels" : [
                {
                    "sampler" : 0,
                    "target" : {
                        "node" : 4,
                        "path" : "rotation"
                    }
                }
            ],
            "name" : "IcosphereAction",
            "samplers" : [
                {
                    "input" : 3,
                    "interpolation" : "LINEAR",
                    "output" : 4
                }
            ]
        }
    ],
    "materials" : [
        {
            "doubleSided" : true,
            "emissiveFactor" : [
                0.3091406108648016,
                0.7000007629394531,
                0.31225314794573933
            ],
            "name" : "Material.001",
            "pbrMetallicRoughness" : {}
        }
    ],
    "meshes" : [
        {
            "name" : "Icosphere",
            "primitives" : [
                {
                    "attributes" : {
                        "POSITION" : 0,
                        "NORMAL" : 1
                    },
                    "indices" : 2,
                    "material" : 0
                }
            ]
        }
    ],
    "accessors" : [
        {
            "bufferView" : 0,
            "componentType" : 5126,
            "count" : 4732,
            "max" : [
                5.191165924072266,
                5.834633827209473,
                4.941401481628418
            ],
            "min" : [
                -4.430699825286865,
                -5.2971296310424805,
                -5.343494415283203
            ],
            "type" : "VEC3"
        },
        {
            "bufferView" : 1,
            "componentType" : 5126,
            "count" : 4732,
            "type" : "VEC3"
        },
        {
            "bufferView" : 2,
            "componentType" : 5123,
            "count" : 6978,
            "type" : "SCALAR"
        },
        {
            "bufferView" : 3,
            "componentType" : 5126,
            "count" : 100,
            "max" : [
                4.166666666666667
            ],
            "min" : [
                0.041666666666666664
            ],
            "type" : "SCALAR"
        },
        {
            "bufferView" : 4,
            "componentType" : 5126,
            "count" : 100,
            "type" : "VEC4"
        }
    ],
    "bufferViews" : [
        {
            "buffer" : 0,
            "byteLength" : 56784,
            "byteOffset" : 0
        },
        {
            "buffer" : 0,
            "byteLength" : 56784,
            "byteOffset" : 56784
        },
        {
            "buffer" : 0,
            "byteLength" : 13956,
            "byteOffset" : 113568
        },
        {
            "buffer" : 0,
            "byteLength" : 400,
            "byteOffset" : 127524
        },
        {
            "buffer" : 0,
            "byteLength" : 1600,
            "byteOffset" : 127924
        }
    ],
    "buffers" : [
        {
            "byteLength" : 129524,
            "uri" : "data:application/octet-stream;base64,"
        }
    ]
}
